<svg width="134" height="19" viewBox="0 0 134 19" fill="none" xmlns="http://www.w3.org/2000/svg">
<path d="M7.83738 1.008H10.9094L12.8534 6.648L14.8214 1.008H17.8694L14.9414 8.76L17.1014 14.184L21.9254 0.959999H25.5254L18.7094 18H15.8534L12.8534 10.848L9.87738 18H7.02138L0.229378 0.959999H3.78138L8.62938 14.184L10.7414 8.76L7.83738 1.008ZM31.8235 18.24C30.8155 18.24 29.9035 18.072 29.0875 17.736C28.2715 17.384 27.5755 16.912 26.9995 16.32C26.4235 15.712 25.9755 15.024 25.6555 14.256C25.3515 13.472 25.1995 12.648 25.1995 11.784C25.1995 10.584 25.4635 9.488 25.9915 8.496C26.5355 7.504 27.3035 6.712 28.2955 6.12C29.3035 5.512 30.4875 5.208 31.8475 5.208C33.2235 5.208 34.3995 5.512 35.3755 6.12C36.3515 6.712 37.0955 7.504 37.6075 8.496C38.1355 9.472 38.3995 10.528 38.3995 11.664C38.3995 11.856 38.3915 12.056 38.3755 12.264C38.3595 12.456 38.3435 12.616 38.3275 12.744H28.6075C28.6715 13.384 28.8555 13.944 29.1595 14.424C29.4795 14.904 29.8795 15.272 30.3595 15.528C30.8555 15.768 31.3835 15.888 31.9435 15.888C32.5835 15.888 33.1835 15.736 33.7435 15.432C34.3195 15.112 34.7115 14.696 34.9195 14.184L37.6795 14.952C37.3755 15.592 36.9355 16.16 36.3595 16.656C35.7995 17.152 35.1355 17.544 34.3675 17.832C33.5995 18.104 32.7515 18.24 31.8235 18.24ZM28.5355 10.704H35.1115C35.0475 10.064 34.8635 9.512 34.5595 9.048C34.2715 8.568 33.8875 8.2 33.4075 7.944C32.9275 7.672 32.3915 7.536 31.7995 7.536C31.2235 7.536 30.6955 7.672 30.2155 7.944C29.7515 8.2 29.3675 8.568 29.0635 9.048C28.7755 9.512 28.5995 10.064 28.5355 10.704ZM48.2307 18.24C47.2707 18.24 46.4147 18.024 45.6627 17.592C44.9107 17.16 44.3187 16.568 43.8867 15.816V18H41.0787V0.48H44.2947V7.632C44.7427 6.88 45.3267 6.288 46.0467 5.856C46.7827 5.424 47.6387 5.208 48.6147 5.208C49.4307 5.208 50.1747 5.384 50.8467 5.736C51.5187 6.072 52.0947 6.544 52.5747 7.152C53.0707 7.76 53.4467 8.456 53.7027 9.24C53.9747 10.024 54.1107 10.864 54.1107 11.76C54.1107 12.656 53.9587 13.496 53.6547 14.28C53.3667 15.064 52.9587 15.76 52.4307 16.368C51.9027 16.96 51.2787 17.424 50.5587 17.76C49.8547 18.08 49.0787 18.24 48.2307 18.24ZM47.3427 15.504C47.8547 15.504 48.3187 15.408 48.7347 15.216C49.1667 15.008 49.5347 14.736 49.8387 14.4C50.1587 14.064 50.3987 13.672 50.5587 13.224C50.7347 12.76 50.8227 12.28 50.8227 11.784C50.8227 11.096 50.6787 10.464 50.3907 9.888C50.1187 9.296 49.7347 8.824 49.2387 8.472C48.7587 8.12 48.1907 7.944 47.5347 7.944C47.0707 7.944 46.6227 8.056 46.1907 8.28C45.7747 8.488 45.3987 8.776 45.0627 9.144C44.7427 9.512 44.4867 9.928 44.2947 10.392V13.392C44.3907 13.712 44.5427 14 44.7507 14.256C44.9747 14.512 45.2307 14.736 45.5187 14.928C45.8067 15.104 46.1027 15.248 46.4067 15.36C46.7267 15.456 47.0387 15.504 47.3427 15.504Z" fill="#2196F3"/>
<path d="M67.4736 5.424C67.3616 5.312 67.1536 5.16 66.8496 4.968C66.5616 4.776 66.2016 4.592 65.7696 4.416C65.3536 4.24 64.8976 4.088 64.4016 3.96C63.9056 3.816 63.4016 3.744 62.8896 3.744C61.9936 3.744 61.3136 3.912 60.8496 4.248C60.4016 4.584 60.1776 5.056 60.1776 5.664C60.1776 6.128 60.3216 6.496 60.6096 6.768C60.8976 7.04 61.3296 7.272 61.9056 7.464C62.4816 7.656 63.2016 7.864 64.0656 8.088C65.1856 8.36 66.1536 8.696 66.9696 9.096C67.8016 9.48 68.4336 9.992 68.8656 10.632C69.3136 11.256 69.5376 12.088 69.5376 13.128C69.5376 14.04 69.3696 14.824 69.0336 15.48C68.6976 16.12 68.2336 16.64 67.6416 17.04C67.0496 17.44 66.3776 17.736 65.6256 17.928C64.8736 18.104 64.0736 18.192 63.2256 18.192C62.3776 18.192 61.5296 18.104 60.6816 17.928C59.8336 17.752 59.0176 17.504 58.2336 17.184C57.4496 16.848 56.7296 16.448 56.0736 15.984L57.5376 13.128C57.6816 13.272 57.9376 13.464 58.3056 13.704C58.6736 13.928 59.1216 14.16 59.6496 14.4C60.1776 14.624 60.7536 14.816 61.3776 14.976C62.0016 15.136 62.6336 15.216 63.2736 15.216C64.1696 15.216 64.8496 15.064 65.3136 14.76C65.7776 14.456 66.0096 14.024 66.0096 13.464C66.0096 12.952 65.8256 12.552 65.4576 12.264C65.0896 11.976 64.5776 11.728 63.9216 11.52C63.2656 11.296 62.4896 11.056 61.5936 10.8C60.5216 10.496 59.6256 10.16 58.9056 9.792C58.1856 9.408 57.6496 8.928 57.2976 8.352C56.9456 7.776 56.7696 7.056 56.7696 6.192C56.7696 5.024 57.0416 4.048 57.5856 3.264C58.1456 2.464 58.8976 1.864 59.8416 1.464C60.7856 1.048 61.8336 0.839999 62.9856 0.839999C63.7856 0.839999 64.5376 0.927999 65.2416 1.104C65.9616 1.28 66.6336 1.512 67.2576 1.8C67.8816 2.088 68.4416 2.4 68.9376 2.736L67.4736 5.424ZM79.7031 17.352C79.4311 17.464 79.1031 17.592 78.7191 17.736C78.3351 17.88 77.9191 17.992 77.4711 18.072C77.0391 18.168 76.5991 18.216 76.1511 18.216C75.5591 18.216 75.0151 18.112 74.5191 17.904C74.0231 17.696 73.6231 17.368 73.3191 16.92C73.0311 16.456 72.8871 15.856 72.8871 15.12V7.896H71.2311V5.424H72.8871V1.344H76.1031V5.424H78.7431V7.896H76.1031V14.04C76.1191 14.472 76.2391 14.784 76.4631 14.976C76.6871 15.168 76.9671 15.264 77.3031 15.264C77.6391 15.264 77.9671 15.208 78.2871 15.096C78.6071 14.984 78.8631 14.888 79.0551 14.808L79.7031 17.352ZM81.9781 13.296V5.424H85.1941V12.6C85.1941 13.56 85.3701 14.288 85.7221 14.784C86.0741 15.264 86.5941 15.504 87.2821 15.504C87.6981 15.504 88.1061 15.424 88.5061 15.264C88.9221 15.088 89.2981 14.832 89.6341 14.496C89.9861 14.16 90.2821 13.736 90.5221 13.224V5.424H93.7381V14.4C93.7381 14.736 93.7941 14.976 93.9061 15.12C94.0341 15.264 94.2341 15.352 94.5061 15.384V18C94.1861 18.048 93.9141 18.08 93.6901 18.096C93.4821 18.128 93.2901 18.144 93.1141 18.144C92.5381 18.144 92.0661 18.016 91.6981 17.76C91.3461 17.488 91.1381 17.12 91.0741 16.656L91.0021 15.648C90.4421 16.496 89.7221 17.144 88.8421 17.592C87.9621 18.024 86.9941 18.24 85.9381 18.24C84.6421 18.24 83.6581 17.824 82.9861 16.992C82.3141 16.144 81.9781 14.912 81.9781 13.296ZM96.886 11.712C96.886 10.496 97.126 9.4 97.606 8.424C98.086 7.432 98.75 6.648 99.598 6.072C100.446 5.496 101.414 5.208 102.502 5.208C103.43 5.208 104.262 5.44 104.998 5.904C105.75 6.352 106.334 6.928 106.75 7.632V0.48H109.966V14.4C109.966 14.736 110.022 14.976 110.134 15.12C110.246 15.264 110.438 15.352 110.71 15.384V18C110.15 18.112 109.694 18.168 109.342 18.168C108.766 18.168 108.286 18.024 107.902 17.736C107.534 17.448 107.326 17.072 107.278 16.608L107.23 15.816C106.766 16.6 106.134 17.2 105.334 17.616C104.55 18.032 103.726 18.24 102.862 18.24C101.998 18.24 101.198 18.072 100.462 17.736C99.742 17.4 99.11 16.936 98.566 16.344C98.038 15.752 97.622 15.064 97.318 14.28C97.03 13.48 96.886 12.624 96.886 11.712ZM106.75 13.392V10.392C106.59 9.928 106.334 9.512 105.982 9.144C105.63 8.776 105.238 8.488 104.806 8.28C104.374 8.056 103.942 7.944 103.51 7.944C103.014 7.944 102.566 8.048 102.166 8.256C101.766 8.464 101.414 8.744 101.11 9.096C100.822 9.448 100.598 9.856 100.438 10.32C100.294 10.784 100.222 11.272 100.222 11.784C100.222 12.296 100.302 12.784 100.462 13.248C100.638 13.696 100.886 14.088 101.206 14.424C101.526 14.76 101.894 15.024 102.31 15.216C102.742 15.408 103.206 15.504 103.702 15.504C104.006 15.504 104.31 15.456 104.614 15.36C104.934 15.248 105.23 15.104 105.502 14.928C105.79 14.736 106.038 14.512 106.246 14.256C106.47 13.984 106.638 13.696 106.75 13.392ZM113.843 18V5.424H117.059V18H113.843ZM113.843 3.672V0.48H117.059V3.672H113.843ZM126.488 18.24C125.464 18.24 124.544 18.072 123.728 17.736C122.912 17.384 122.216 16.904 121.64 16.296C121.08 15.688 120.648 14.992 120.344 14.208C120.04 13.424 119.888 12.6 119.888 11.736C119.888 10.856 120.04 10.024 120.344 9.24C120.648 8.456 121.08 7.76 121.64 7.152C122.216 6.544 122.912 6.072 123.728 5.736C124.544 5.384 125.464 5.208 126.488 5.208C127.512 5.208 128.424 5.384 129.224 5.736C130.04 6.072 130.736 6.544 131.312 7.152C131.888 7.76 132.32 8.456 132.608 9.24C132.912 10.024 133.064 10.856 133.064 11.736C133.064 12.6 132.912 13.424 132.608 14.208C132.32 14.992 131.888 15.688 131.312 16.296C130.752 16.904 130.064 17.384 129.248 17.736C128.432 18.072 127.512 18.24 126.488 18.24ZM123.2 11.736C123.2 12.472 123.344 13.128 123.632 13.704C123.92 14.264 124.312 14.704 124.808 15.024C125.304 15.344 125.864 15.504 126.488 15.504C127.096 15.504 127.648 15.344 128.144 15.024C128.64 14.688 129.032 14.24 129.32 13.68C129.624 13.104 129.776 12.448 129.776 11.712C129.776 10.992 129.624 10.344 129.32 9.768C129.032 9.192 128.64 8.744 128.144 8.424C127.648 8.104 127.096 7.944 126.488 7.944C125.864 7.944 125.304 8.112 124.808 8.448C124.312 8.768 123.92 9.216 123.632 9.792C123.344 10.352 123.2 11 123.2 11.736Z" fill="white"/>
</svg>
